{
    "accessors": {
        "Cylinder_buffer_accessor_0": {
            "bufferView": "Cylinder_buffer_view_0",
            "byteOffset": 0,
            "byteStride": 24,
            "componentType": 5126,
            "count": 192,
            "max": [
                4.077413558959961,
                4.077413082122803,
                9.579732894897461
            ],
            "min": [
                -4.077414512634277,
                -4.077414512634277,
                -1.0
            ],
            "type": "VEC3"
        },
        "Cylinder_buffer_accessor_1": {
            "bufferView": "Cylinder_buffer_view_0",
            "byteOffset": 12,
            "byteStride": 24,
            "componentType": 5126,
            "count": 192,
            "max": [
                0.955937922000885,
                0.9559379816055298,
                1.0
            ],
            "min": [
                -0.9559379816055298,
                -0.9559379816055298,
                -0.9999999403953552
            ],
            "type": "VEC3"
        },
        "Cylinder_buffer_accessor_2": {
            "bufferView": "Cylinder_buffer_view_1",
            "byteOffset": 0,
            "byteStride": 2,
            "componentType": 5123,
            "count": 372,
            "max": [
                191
            ],
            "min": [
                0
            ],
            "type": "SCALAR"
        },
        "Sphere_buffer_accessor_0": {
            "bufferView": "Sphere_buffer_view_0",
            "byteOffset": 0,
            "byteStride": 24,
            "componentType": 5126,
            "count": 1984,
            "max": [
                1.0000003576278687,
                1.000000238418579,
                1.0
            ],
            "min": [
                -1.0,
                -0.9999998211860657,
                -1.0
            ],
            "type": "VEC3"
        },
        "Sphere_buffer_accessor_1": {
            "bufferView": "Sphere_buffer_view_0",
            "byteOffset": 12,
            "byteStride": 24,
            "componentType": 5126,
            "count": 1984,
            "max": [
                0.9904382824897766,
                0.9904382228851318,
                0.9951385855674744
            ],
            "min": [
                -0.9904384016990662,
                -0.9904382228851318,
                -0.9951384663581848
            ],
            "type": "VEC3"
        },
        "Sphere_buffer_accessor_2": {
            "bufferView": "Sphere_buffer_view_1",
            "byteOffset": 0,
            "byteStride": 2,
            "componentType": 5123,
            "count": 2880,
            "max": [
                1983
            ],
            "min": [
                0
            ],
            "type": "SCALAR"
        },
        "Torus.001_buffer_accessor_0": {
            "bufferView": "Torus.001_buffer_view_0",
            "byteOffset": 0,
            "byteStride": 24,
            "componentType": 5126,
            "count": 2304,
            "max": [
                1.25,
                1.2500001192092896,
                0.25
            ],
            "min": [
                -1.25,
                -1.2500001192092896,
                -0.25
            ],
            "type": "VEC3"
        },
        "Torus.001_buffer_accessor_1": {
            "bufferView": "Torus.001_buffer_view_0",
            "byteOffset": 12,
            "byteStride": 24,
            "componentType": 5126,
            "count": 2304,
            "max": [
                0.9639959931373596,
                0.9639959335327148,
                0.9657869935035706
            ],
            "min": [
                -0.9639959931373596,
                -0.9639959335327148,
                -0.9657870531082153
            ],
            "type": "VEC3"
        },
        "Torus.001_buffer_accessor_2": {
            "bufferView": "Torus.001_buffer_view_1",
            "byteOffset": 0,
            "byteStride": 2,
            "componentType": 5123,
            "count": 3456,
            "max": [
                2303
            ],
            "min": [
                0
            ],
            "type": "SCALAR"
        },
        "Torus_buffer_accessor_0": {
            "bufferView": "Torus_buffer_view_0",
            "byteOffset": 0,
            "byteStride": 24,
            "componentType": 5126,
            "count": 2304,
            "max": [
                1.25,
                1.2500001192092896,
                0.25
            ],
            "min": [
                -1.25,
                -1.2500001192092896,
                -0.25
            ],
            "type": "VEC3"
        },
        "Torus_buffer_accessor_1": {
            "bufferView": "Torus_buffer_view_0",
            "byteOffset": 12,
            "byteStride": 24,
            "componentType": 5126,
            "count": 2304,
            "max": [
                0.9639959931373596,
                0.9639959335327148,
                0.9657869935035706
            ],
            "min": [
                -0.9639959931373596,
                -0.9639959335327148,
                -0.9657870531082153
            ],
            "type": "VEC3"
        },
        "Torus_buffer_accessor_2": {
            "bufferView": "Torus_buffer_view_1",
            "byteOffset": 0,
            "byteStride": 2,
            "componentType": 5123,
            "count": 3456,
            "max": [
                2303
            ],
            "min": [
                0
            ],
            "type": "SCALAR"
        }
    },
    "asset": {
        "profile": {
            "api": "WebGL",
            "version": "1.0.3"
        },
        "version": "1.0"
    },
    "bufferViews": {
        "Cylinder_buffer_view_0": {
            "buffer": "Cylinder_buffer",
            "byteLength": 4608,
            "byteOffset": 0,
            "target": 34962
        },
        "Cylinder_buffer_view_1": {
            "buffer": "Cylinder_buffer",
            "byteLength": 744,
            "byteOffset": 4608,
            "target": 34963
        },
        "Sphere_buffer_view_0": {
            "buffer": "Sphere_buffer",
            "byteLength": 47616,
            "byteOffset": 0,
            "target": 34962
        },
        "Sphere_buffer_view_1": {
            "buffer": "Sphere_buffer",
            "byteLength": 5760,
            "byteOffset": 47616,
            "target": 34963
        },
        "Torus.001_buffer_view_0": {
            "buffer": "Torus.001_buffer",
            "byteLength": 55296,
            "byteOffset": 0,
            "target": 34962
        },
        "Torus.001_buffer_view_1": {
            "buffer": "Torus.001_buffer",
            "byteLength": 6912,
            "byteOffset": 55296,
            "target": 34963
        },
        "Torus_buffer_view_0": {
            "buffer": "Torus_buffer",
            "byteLength": 55296,
            "byteOffset": 0,
            "target": 34962
        },
        "Torus_buffer_view_1": {
            "buffer": "Torus_buffer",
            "byteLength": 6912,
            "byteOffset": 55296,
            "target": 34963
        }
    },
    "buffers": {
        "Cylinder_buffer": {
            "byteLength": 5352,
            "type": "arraybuffer",
            "uri": "data:text/plain;base64,"
        },
        "Sphere_buffer": {
            "byteLength": 53376,
            "type": "arraybuffer",
            "uri": "data:text/plain;base64,"
        },
        "Torus.001_buffer": {
            "byteLength": 62208,
            "type": "arraybuffer",
            "uri": "data:text/plain;base64,"
        },
        "Torus_buffer": {
            "byteLength": 62208,
            "type": "arraybuffer",
            "uri": "data:text/plain;base64,"
        }
    },
    "extensions": {
        "BLENDER_actions": {
            "actions": {}
        }
    },
    "extensionsUsed": [
        "BLENDER_actions",
        "BLENDER_physics"
    ],
    "extras": {
        "lights": {
            "Lamp": {
                "point": {
                    "color": [
                        1.0,
                        1.0,
                        1.0
                    ],
                    "constantAttenuation": 1,
                    "linearAttenuation": 0,
                    "quadraticAttenuation": 0.03333335240683057
                },
                "type": "point"
            }
        }
    },
    "materials": {
        "Material": {
            "values": {
                "ambient": [
                    1.0,
                    1.0,
                    1.0,
                    1.0
                ],
                "diffuse": [
                    0.64000004529953,
                    0.64000004529953,
                    0.64000004529953,
                    1.0
                ],
                "emission": [
                    0.0,
                    0.0,
                    0.0,
                    1.0
                ],
                "shininess": 50,
                "specular": [
                    0.5,
                    0.5,
                    0.5,
                    1.0
                ],
                "textures": [],
                "uv_layers": [
                    ""
                ]
            }
        }
    },
    "meshes": {
        "Cylinder": {
            "name": "Cylinder",
            "primitives": [
                {
                    "attributes": {
                        "NORMAL": "Cylinder_buffer_accessor_1",
                        "POSITION": "Cylinder_buffer_accessor_0"
                    },
                    "indices": "Cylinder_buffer_accessor_2",
                    "material": "",
                    "mode": 4
                }
            ]
        },
        "Sphere": {
            "name": "Sphere",
            "primitives": [
                {
                    "attributes": {
                        "NORMAL": "Sphere_buffer_accessor_1",
                        "POSITION": "Sphere_buffer_accessor_0"
                    },
                    "indices": "Sphere_buffer_accessor_2",
                    "material": "",
                    "mode": 4
                }
            ]
        },
        "Torus": {
            "name": "Torus",
            "primitives": [
                {
                    "attributes": {
                        "NORMAL": "Torus_buffer_accessor_1",
                        "POSITION": "Torus_buffer_accessor_0"
                    },
                    "indices": "Torus_buffer_accessor_2",
                    "material": "",
                    "mode": 4
                }
            ]
        },
        "Torus.001": {
            "name": "Torus.001",
            "primitives": [
                {
                    "attributes": {
                        "NORMAL": "Torus.001_buffer_accessor_1",
                        "POSITION": "Torus.001_buffer_accessor_0"
                    },
                    "indices": "Torus.001_buffer_accessor_2",
                    "material": "",
                    "mode": 4
                }
            ]
        }
    },
    "nodes": {
        "Camera": {
            "camera": "Camera",
            "children": [],
            "matrix": [
                0.6858805418014526,
                0.7276337742805481,
                -0.010816780850291252,
                0.0,
                -0.31737011671066284,
                0.31246861815452576,
                0.8953432440757751,
                0.0,
                0.6548618674278259,
                -0.6106656193733215,
                0.4452453553676605,
                0.0,
                7.481131553649902,
                -6.5076398849487305,
                5.34366512298584,
                1.0
            ],
            "name": "Camera"
        },
        "Cylinder": {
            "children": [],
            "matrix": [
                1.0,
                0.0,
                0.0,
                0.0,
                0.0,
                1.0,
                0.0,
                0.0,
                0.0,
                0.0,
                1.0,
                0.0,
                0.0,
                0.0,
                1.0,
                1.0
            ],
            "meshes": [
                "Cylinder"
            ],
            "name": "Cylinder"
        },
        "Lamp": {
            "children": [],
            "extras": {
                "light": "Lamp"
            },
            "matrix": [
                -0.29086464643478394,
                0.9551711678504944,
                -0.05518905818462372,
                0.0,
                -0.7711008191108704,
                -0.1998833566904068,
                0.6045247316360474,
                0.0,
                0.5663931965827942,
                0.21839119493961334,
                0.7946722507476807,
                0.0,
                4.076245307922363,
                1.0054539442062378,
                5.903861999511719,
                1.0
            ],
            "name": "Lamp"
        },
        "Sphere": {
            "children": [],
            "matrix": [
                2.0924019813537598,
                0.0,
                0.0,
                0.0,
                0.0,
                2.0924019813537598,
                0.0,
                0.0,
                0.0,
                0.0,
                2.0924019813537598,
                0.0,
                -0.009670436382293701,
                -0.1009521484375,
                11.425268173217773,
                1.0
            ],
            "meshes": [
                "Sphere"
            ],
            "name": "Sphere"
        },
        "Torus": {
            "children": [],
            "matrix": [
                2.9267776012420654,
                0.0,
                0.0,
                0.0,
                0.0,
                2.9267776012420654,
                0.0,
                0.0,
                0.0,
                0.0,
                2.9267776012420654,
                0.0,
                -0.4454345703125,
                -0.1009521484375,
                8.032901763916016,
                1.0
            ],
            "meshes": [
                "Torus"
            ],
            "name": "Torus"
        },
        "Torus.001": {
            "children": [],
            "matrix": [
                4.254491806030273,
                0.0,
                0.0,
                0.0,
                0.0,
                4.254491806030273,
                0.0,
                0.0,
                0.0,
                0.0,
                4.254491806030273,
                0.0,
                -0.4454345703125,
                -0.1009521484375,
                3.570368766784668,
                1.0
            ],
            "meshes": [
                "Torus.001"
            ],
            "name": "Torus.001"
        }
    },
    "samplers": {
        "default": {}
    },
    "scene": "Scene",
    "scenes": {
        "Scene": {
            "extras": {
                "active_camera": "Camera",
                "background_color": [
                    0.05087608844041824,
                    0.05087608844041824,
                    0.05087608844041824
                ],
                "frames_per_second": 24,
                "hidden_nodes": []
            },
            "nodes": [
                "Sphere",
                "Torus.001",
                "Torus",
                "Cylinder",
                "Lamp",
                "Camera"
            ]
        }
    }
}
